/* XPM */
static char *PuzzlePiece___[] = {
/* columns rows colors chars-per-pixel */
"16 16 64 1",
"  c #3C8C38",
". c #41903C",
"X c #469541",
"o c #4A9945",
"O c #4E9D48",
"+ c #51A04B",
"@ c #52A14C",
"# c #55A44F",
"$ c #59B54F",
"% c #5AA853",
"& c #5EAC57",
"* c #5CB752",
"= c #62AE5C",
"- c #60B955",
"; c #66B55F",
": c #63BA58",
"> c #65BB59",
", c #66BB5D",
"< c #68BC5B",
"1 c #69BD5D",
"2 c #6CBE5F",
"3 c #6DB566",
"4 c #6AB862",
"5 c #6BBD62",
"6 c #6DBF60",
"7 c #6EBC65",
"8 c #6FC064",
"9 c #72C165",
"0 c #72C169",
"q c #76C26A",
"w c #77C46D",
"e c #78C66F",
"r c #7AC072",
"t c #7AC770",
"y c #7CC376",
"u c #7BC971",
"i c #7DC973",
"p c #7ECB74",
"a c #80CE76",
"s c #81C67B",
"d c #87CB79",
"f c #82CE79",
"g c #84C87D",
"h c #83D079",
"j c #87CA80",
"k c #88CA81",
"l c #89CA83",
"z c #8ACB83",
"x c #8BCC83",
"c c #8DCD85",
"v c #91CF89",
"b c #94CF8B",
"n c #96D18D",
"m c #99D290",
"M c #9CD493",
"N c #9ED595",
"B c #A1D797",
"V c #A2D897",
"C c #A2D798",
"Z c #A3D899",
"A c #A4D899",
"S c #A7D99C",
"D c #E6F5E4",
"F c None",
/* pixels */
"FFFFFFFFFFFFFFFF",
"FFFFFfaiiFFFFFFF",
"FFFFDfSVwFFFFFFF",
"FFFFFiVnqFFFFFFF",
"FhapueBM74;=FFFF",
"FaSACBNMmnb&FFFF",
"FpZBdq9999b%FFFF",
"FtwgM9821>v3@OoF",
"FFF7m211>-8xkkXF",
"FFF4n1>>-*5kgg.F",
"F74rb>*-*$j=X..F",
"F4bv0cclk,gXFFFF",
"F;v-c3@O=gs.FFFF",
"F=cxl@FFXsy FFFF",
"F&%#@OFF..  FFFF",
"FFFFFFFFFFFFFFFF"
};
